<svg width="160" height="60" viewBox="0 0 160 60" fill="none" xmlns="http://www.w3.org/2000/svg">
  <path d="M26.72 45.28C26.72 48.8 25.616 51.52 23.408 53.44C21.2 55.36 18.064 56.32 14 56.32H2.24V14.96H14C18.064 14.96 21.2 15.92 23.408 17.84C25.616 19.76 26.72 22.48 26.72 26C26.72 28.4 26.112 30.4 24.896 32C23.712 33.6 22.096 34.72 20.048 35.36C22.256 35.84 24.064 36.96 25.472 38.72C26.304 39.36 26.72 42 26.72 45.28ZM8.896 20.24V31.68H13.424C15.344 31.68 16.832 31.2 17.888 30.24C18.976 29.28 19.52 28 19.52 26.4C19.52 24.8 18.976 23.52 17.888 22.56C16.832 21.6 15.344 21.12 13.424 21.12H8.896V20.24ZM19.968 43.68C19.968 38.24 17.12 35.52 11.424 35.52H8.896V50.4H11.424C17.12 50.4 19.968 48.16 19.968 43.68Z" fill="url(#paint0_linear)" />
  <path d="M59.6309 50.88H46.0309V33.44C46.0309 30 47.0869 27.296 49.1989 25.328C51.3109 23.328 54.0229 22.328 57.3349 22.328C60.6469 22.328 63.3589 23.328 65.4709 25.328C67.5829 27.296 68.6389 30 68.6389 33.44V50.88H59.6309ZM59.6309 33.44C59.6309 32.36 59.3509 31.488 58.7909 30.824C58.2309 30.16 57.5029 29.828 56.6069 29.828C55.7109 29.828 54.9829 30.16 54.4229 30.824C53.8629 31.488 53.5829 32.36 53.5829 33.44V43.52H59.6309V33.44Z" fill="url(#paint1_linear)" />
  <path d="M103.63 44.08C103.63 46.48 102.542 48.36 100.366 49.72C98.19 51.08 95.166 51.76 91.294 51.76C87.39 51.76 84.35 51.08 82.174 49.72C79.998 48.36 78.91 46.48 78.91 44.08V22.96H88.19V43.84C88.19 44.92 89.23 45.46 91.31 45.46C93.39 45.46 94.43 44.92 94.43 43.84V22.96H103.63V44.08Z" fill="url(#paint2_linear)" />
  <path d="M147.968 37.84C147.968 42.736 146.672 46.448 144.08 48.976C141.488 51.504 137.808 52.768 133.04 52.768C128.272 52.768 124.592 51.504 122 48.976C119.408 46.448 118.112 42.736 118.112 37.84C118.112 32.944 119.408 29.232 122 26.704C124.592 24.176 128.272 22.912 133.04 22.912C137.808 22.912 141.488 24.176 144.08 26.704C146.672 29.232 147.968 32.944 147.968 37.84ZM127.568 37.84C127.568 40.496 128 42.432 128.864 43.648C129.728 44.864 131.136 45.472 133.088 45.472C135.04 45.472 136.432 44.864 137.264 43.648C138.128 42.432 138.56 40.496 138.56 37.84C138.56 35.184 138.128 33.264 137.264 32.08C136.432 30.864 135.04 30.256 133.088 30.256C131.136 30.256 129.728 30.864 128.864 32.08C128 33.264 127.568 35.184 127.568 37.84Z" fill="url(#paint3_linear)" />
  <defs>
    <linearGradient id="paint0_linear" x1="2.24" y1="35.64" x2="154.24" y2="35.64" gradientUnits="userSpaceOnUse">
      <stop stopColor="#38A169" />
      <stop offset="0.333333" stopColor="#ED8936" />
      <stop offset="1" stopColor="#38B2AC" />
    </linearGradient>
    <linearGradient id="paint1_linear" x1="2.24" y1="35.64" x2="154.24" y2="35.64" gradientUnits="userSpaceOnUse">
      <stop stopColor="#38A169" />
      <stop offset="0.333333" stopColor="#ED8936" />
      <stop offset="1" stopColor="#38B2AC" />
    </linearGradient>
    <linearGradient id="paint2_linear" x1="2.24" y1="35.64" x2="154.24" y2="35.64" gradientUnits="userSpaceOnUse">
      <stop stopColor="#38A169" />
      <stop offset="0.333333" stopColor="#ED8936" />
      <stop offset="1" stopColor="#38B2AC" />
    </linearGradient>
    <linearGradient id="paint3_linear" x1="2.24" y1="35.64" x2="154.24" y2="35.64" gradientUnits="userSpaceOnUse">
      <stop stopColor="#38A169" />
      <stop offset="0.333333" stopColor="#ED8936" />
      <stop offset="1" stopColor="#38B2AC" />
    </linearGradient>
  </defs>
</svg> 